<?xml version="1.0" standalone="no"?>
<!DOCTYPE svg PUBLIC "-//W3C//DTD SVG 20010904//EN"
 "http://www.w3.org/TR/2001/REC-SVG-20010904/DTD/svg10.dtd">
<svg version="1.0" xmlns="http://www.w3.org/2000/svg"
 width="500.000000pt" height="500.000000pt" viewBox="0 0 500.000000 500.000000"
 preserveAspectRatio="xMidYMid meet">

<g transform="translate(0.000000,500.000000) scale(0.100000,-0.100000)"
fill="#000000" stroke="none">
<path d="M2350 3163 c-22 -68 -100 -209 -192 -350 -103 -156 -151 -247 -169
-316 -34 -135 42 -240 162 -224 60 8 128 58 228 166 98 106 169 161 210 161
25 1 25 2 -16 39 -81 73 -109 64 -241 -78 -56 -60 -123 -123 -148 -140 -92
-60 -153 -31 -141 68 8 70 47 155 149 329 94 160 168 308 168 336 0 27 20 18
35 -16 8 -18 92 -220 188 -448 l174 -415 76 -3 c42 -2 77 0 77 3 0 3 -13 31
-29 63 -16 31 -104 238 -196 460 l-168 402 -77 0 -78 0 -12 -37z"/>
<path d="M1728 2068 c13 -13 17 -275 4 -294 -4 -6 -14 -14 -22 -17 -27 -10
124 -7 162 3 71 20 90 89 39 141 -16 16 -38 29 -48 29 -13 1 -11 5 10 16 78
42 42 136 -51 133 -26 -1 -25 -1 6 -10 30 -9 52 -39 52 -70 0 -22 -50 -59 -80
-59 l-32 0 4 70 3 70 -29 0 c-23 0 -27 -3 -18 -12z m148 -169 c47 -44 21 -117
-49 -134 -45 -12 -57 7 -57 93 l0 75 41 -6 c23 -3 52 -15 65 -28z"/>
<path d="M2028 2068 c8 -8 12 -48 12 -115 0 -159 27 -203 127 -203 44 0 58 5
85 29 33 29 33 29 39 150 4 74 11 126 19 136 11 13 8 15 -21 15 -26 0 -30 -3
-21 -12 8 -8 12 -52 12 -131 0 -118 0 -119 -29 -148 -23 -23 -38 -29 -71 -29
-54 0 -79 14 -96 55 -17 41 -19 216 -4 246 10 17 7 19 -27 19 -29 0 -34 -3
-25 -12z"/>
<path d="M2433 2051 c13 -16 41 -59 61 -94 30 -55 36 -75 36 -126 0 -55 -3
-63 -22 -71 -17 -6 -7 -9 42 -9 49 0 59 3 43 9 -21 8 -23 16 -23 75 0 55 6 77
36 138 20 39 43 80 52 90 14 16 13 17 -6 17 -13 0 -22 -6 -22 -15 0 -19 -61
-155 -69 -155 -8 0 -91 144 -91 158 0 7 -14 12 -31 12 l-31 0 25 -29z"/>
<path d="M2788 2068 c13 -13 17 -275 4 -294 -4 -6 -14 -14 -22 -17 -8 -3 38
-6 103 -6 117 -1 117 -1 117 23 l0 24 -37 -19 c-49 -25 -99 -25 -113 0 -5 11
-10 45 -10 75 l0 56 38 0 c21 0 43 -5 50 -12 9 -9 12 -6 12 14 0 25 -2 26 -32
17 -69 -19 -70 -18 -66 71 l3 80 -29 0 c-23 0 -27 -3 -18 -12z"/>
<path d="M2902 2071 c20 -4 44 -13 52 -21 14 -11 16 -9 16 9 0 19 -5 21 -52
20 -51 -1 -51 -2 -16 -8z"/>
<path d="M3100 2061 c11 -21 14 -240 4 -278 -3 -12 -13 -24 -23 -26 -9 -3 37
-5 102 -6 l117 -1 0 32 c0 28 -2 30 -12 15 -28 -36 -130 -51 -142 -21 -3 9 -6
42 -6 75 l0 59 38 0 c21 0 43 -5 50 -12 9 -9 12 -5 12 19 0 31 0 32 -27 17
-16 -7 -38 -14 -50 -14 -22 0 -23 4 -23 80 0 79 0 80 -25 80 -22 0 -24 -3 -15
-19z"/>
<path d="M3214 2070 c22 -4 45 -16 53 -26 12 -16 13 -16 13 9 0 26 -2 27 -52
26 l-53 -1 39 -8z"/>
</g>
</svg>
